{
  "asset": {
    "version": "2.0",
    "generator": "THREE.JS GLTFExporter"
  },
  "scenes": [
    {
      "nodes": [
        3
      ],
      "name": "AuxScene"
    }
  ],
  "scene": 0,
  "nodes": [
    {
      "name": "Cube.015_Cube.017",
      "mesh": 0
    },
    {
      "name": "Cube",
      "mesh": 1
    },
    {
      "children": [
        0,
        1
      ]
    },
    {
      "matrix": [
        0.08,
        0,
        0,
        0,
        0,
        0.08,
        0,
        0,
        0,
        0,
        0.08,
        0,
        -2.7793915093495123,
        0.9006626644014246,
        -4.2749391735954125,
        1
      ],
      "children": [
        2
      ]
    }
  ],
  "meshes": [
    {
      "primitives": [
        {
          "mode": 4,
          "attributes": {
            "POSITION": 0,
            "NORMAL": 1,
            "TEXCOORD_0": 2
          },
          "material": 0
        }
      ]
    },
    {
      "primitives": [
        {
          "mode": 4,
          "attributes": {
            "POSITION": 3,
            "NORMAL": 4,
            "TEXCOORD_0": 5
          },
          "material": 1
        }
      ]
    }
  ],
  "materials": [
    {
      "pbrMetallicRoughness": {
        "metallicFactor": 0,
        "roughnessFactor": 0.5
      }
    },
    {
      "pbrMetallicRoughness": {
        "metallicFactor": 0,
        "roughnessFactor": 0.5
      }
    }
  ],
  "accessors": [
    {
      "bufferView": 0,
      "componentType": 5126,
      "count": 7008,
      "max": [
        4.758907794952393,
        4.79825496673584,
        2.0358951091766357
      ],
      "min": [
        0.39884498715400696,
        -3.85343599319458,
        -3.2352240085601807
      ],
      "type": "VEC3"
    },
    {
      "bufferView": 1,
      "componentType": 5126,
      "count": 7008,
      "max": [
        1,
        0.9998999834060669,
        1
      ],
      "min": [
        -1,
        -0.9998000264167786,
        -0.9998000264167786
      ],
      "type": "VEC3"
    },
    {
      "bufferView": 2,
      "componentType": 5126,
      "count": 7008,
      "max": [
        1,
        1
      ],
      "min": [
        0.00047400000039488077,
        0
      ],
      "type": "VEC2"
    },
    {
      "bufferView": 3,
      "componentType": 5126,
      "count": 7008,
      "max": [
        4.758909225463867,
        4.79825496673584,
        8.31329345703125
      ],
      "min": [
        0.3988470137119293,
        -3.8534369468688965,
        3.042172908782959
      ],
      "type": "VEC3"
    },
    {
      "bufferView": 4,
      "componentType": 5126,
      "count": 7008,
      "max": [
        1,
        0.9998000264167786,
        1
      ],
      "min": [
        -1,
        -0.9998999834060669,
        -0.9998000264167786
      ],
      "type": "VEC3"
    },
    {
      "bufferView": 5,
      "componentType": 5126,
      "count": 7008,
      "max": [
        1,
        1
      ],
      "min": [
        0.00047400000039488077,
        0
      ],
      "type": "VEC2"
    }
  ],
  "bufferViews": [
    {
      "buffer": 0,
      "byteOffset": 0,
      "byteLength": 84096,
      "byteStride": 12,
      "target": 34962
    },
    {
      "buffer": 0,
      "byteOffset": 84096,
      "byteLength": 84096,
      "byteStride": 12,
      "target": 34962
    },
    {
      "buffer": 0,
      "byteOffset": 168192,
      "byteLength": 56064,
      "byteStride": 8,
      "target": 34962
    },
    {
      "buffer": 0,
      "byteOffset": 224256,
      "byteLength": 84096,
      "byteStride": 12,
      "target": 34962
    },
    {
      "buffer": 0,
      "byteOffset": 308352,
      "byteLength": 84096,
      "byteStride": 12,
      "target": 34962
    },
    {
      "buffer": 0,
      "byteOffset": 392448,
      "byteLength": 56064,
      "byteStride": 8,
      "target": 34962
    }
  ],
  "buffers": [
    {
      "byteLength": 448512,
      "uri": "data:application/octet-stream;base64,"
    }
  ]
}